<svg width="369" height="369" viewBox="0 0 369 369" fill="none" xmlns="http://www.w3.org/2000/svg">
<path d="M137.133 321.378L89.0384 74.8784L326.561 156.476L137.133 321.378Z" stroke="#C2FF16" stroke-opacity="0.74" stroke-width="5"/>
<mask id="mask0_15_47" style="mask-type:luminance" maskUnits="userSpaceOnUse" x="96" y="62" width="177" height="213">
<path d="M272.212 87.1003L128.279 62.6228L96.4248 249.934L240.358 274.411L272.212 87.1003Z" fill="white"/>
</mask>
<g mask="url(#mask0_15_47)">
<path fill-rule="evenodd" clip-rule="evenodd" d="M179.772 72.9791C176.451 72.8201 170.845 72.9825 167.243 73.2829C163.741 73.6002 158.608 74.5532 155.827 75.3989C152.947 76.2278 149.292 78.0406 147.545 79.3665C145.814 80.5938 143.042 83.774 141.308 86.2178C138.978 89.7776 137.999 92.5527 136.959 98.665C136.153 104.005 135.952 109.956 136.603 116.863C137.16 122.536 138.004 130.693 138.697 134.97L139.806 142.766C130.064 150.543 125.48 154.835 123.45 157.229C121.304 159.704 117.886 164.296 115.902 167.61C113.82 170.908 111.073 176.324 109.779 179.756C108.387 183.171 106.706 189.478 105.968 193.816C105.23 198.154 104.831 204.679 104.917 208.345C105.102 212.029 105.741 217.817 106.469 221.289C107.198 224.76 109.053 230.553 110.668 234.175C112.382 237.814 115.687 242.839 117.996 245.362C120.422 247.803 124.997 251.32 128.361 253.008C134.056 255.904 136.603 256.438 170.468 261.893L206.501 267.717C217.263 264.678 222.664 262.148 225.548 260.102C228.431 258.057 232.571 253.993 234.784 251.123C237.013 248.155 240.45 242.856 242.368 239.328C245.478 233.568 246.749 230.866 249.915 218.218C250.867 203.672 250.975 201.84 249.489 193.879C248.551 189.256 246.731 182.657 245.411 179.086C244.075 175.612 241.003 169.815 238.796 166.093L234.56 159.388C242.935 142.35 246.695 133.962 248.32 129.775C250.144 125.014 251.576 119.577 252.018 115.189C252.392 111.195 252.194 106.394 251.496 103.942C250.879 101.606 248.967 97.9332 247.413 95.7415C245.858 93.5499 242.351 90.3161 239.808 88.565C237.167 86.7973 231.833 84.1657 228.139 82.6246C223.673 80.8508 214.819 78.635 203.516 76.5098C193.789 74.6529 183.109 73.0394 179.772 72.9791ZM175.108 105.176C171.573 105.082 167.051 105.429 165.044 105.899L161.342 106.791C161.679 114.355 162.233 120.637 162.775 125.8C163.317 130.964 163.926 135.734 164.203 136.491C164.61 137.676 165.711 137.762 170.366 137.235C173.474 136.851 180.148 136.971 185.029 137.497C191.406 138.176 196.186 139.293 201.604 141.432C205.791 143.056 210.06 144.797 211.094 145.277C212.785 146.072 213.479 144.972 218.312 135.042C221.275 128.953 224.108 122.435 224.722 120.613C225.653 117.525 225.523 117.097 222.651 115.493C220.895 114.484 216.232 112.677 212.291 111.398C208.333 110.218 199.724 108.348 193.201 107.34C186.694 106.234 178.543 105.253 175.108 105.176Z" fill="#F2308B"/>
<path d="M167.243 73.2829L167.035 70.7915L167.027 70.7923L167.018 70.7931L167.243 73.2829ZM179.772 72.979L179.652 75.4762L179.689 75.478L179.726 75.4786L179.772 72.979ZM155.827 75.3989L156.518 77.8013L156.536 77.7961L156.554 77.7908L155.827 75.3989ZM147.545 79.3665L148.991 81.4056L149.024 81.3823L149.056 81.3579L147.545 79.3665ZM141.308 86.2178L139.269 84.771L139.242 84.8094L139.216 84.8488L141.308 86.2178ZM136.959 98.665L134.495 98.2458L134.491 98.2686L134.487 98.2915L136.959 98.665ZM136.603 116.863L134.114 117.097L134.115 117.107L136.603 116.863ZM138.697 134.97L141.172 134.618L141.169 134.594L141.165 134.57L138.697 134.97ZM139.806 142.766L141.365 144.72L142.482 143.829L142.281 142.414L139.806 142.766ZM123.45 157.229L125.339 158.866L125.348 158.856L125.356 158.846L123.45 157.229ZM115.902 167.61L118.016 168.945L118.032 168.92L118.047 168.894L115.902 167.61ZM109.779 179.756L112.094 180.7L112.107 180.669L112.119 180.638L109.779 179.756ZM104.917 208.345L102.418 208.404L102.419 208.438L102.421 208.471L104.917 208.345ZM110.668 234.175L108.385 235.193L108.396 235.217L108.407 235.24L110.668 234.175ZM117.996 245.362L116.153 247.05L116.187 247.088L116.223 247.124L117.996 245.362ZM128.361 253.008L129.494 250.779L129.482 250.773L128.361 253.008ZM170.468 261.893L170.867 259.425H170.865L170.468 261.893ZM206.501 267.717L206.102 270.185L206.648 270.273L207.181 270.123L206.501 267.717ZM234.784 251.123L236.763 252.65L236.773 252.637L236.783 252.625L234.784 251.123ZM242.368 239.328L244.565 240.522L244.568 240.516L242.368 239.328ZM249.915 218.218L252.34 218.825L252.394 218.606L252.409 218.381L249.915 218.218ZM249.489 193.879L251.947 193.42L251.943 193.401L251.939 193.381L249.489 193.879ZM245.411 179.086L247.756 178.219L247.751 178.203L247.745 178.188L245.411 179.086ZM238.796 166.093L240.947 164.818L240.929 164.787L240.91 164.757L238.796 166.093ZM234.56 159.388L232.317 158.285L231.7 159.54L232.447 160.723L234.56 159.388ZM248.32 129.775L250.65 130.68L250.654 130.67L248.32 129.775ZM252.018 115.189L254.505 115.439L254.506 115.431L254.507 115.422L252.018 115.189ZM251.496 103.942L249.079 104.58L249.085 104.604L249.091 104.627L251.496 103.942ZM239.808 88.565L241.226 86.5061L241.213 86.4967L241.199 86.4874L239.808 88.565ZM228.139 82.6245L229.102 80.3173L229.082 80.3091L229.062 80.3011L228.139 82.6245ZM203.516 76.5097L203.047 78.9655L203.054 78.9668L203.516 76.5097ZM165.044 105.899L164.474 103.465L164.466 103.467L164.458 103.469L165.044 105.899ZM175.108 105.176L175.041 107.675H175.051L175.108 105.176ZM161.342 106.791L160.756 104.361L158.753 104.843L158.844 106.902L161.342 106.791ZM164.203 136.491L166.568 135.679L166.559 135.656L166.551 135.632L164.203 136.491ZM170.366 137.235L170.647 139.719L170.66 139.718L170.672 139.716L170.366 137.235ZM185.029 137.497L184.762 139.983H184.765L185.029 137.497ZM201.604 141.432L200.686 143.757L200.693 143.76L200.7 143.762L201.604 141.432ZM211.094 145.277L212.157 143.014L212.147 143.009L211.094 145.277ZM224.722 120.613L227.091 121.411L227.104 121.373L227.115 121.334L224.722 120.613ZM222.651 115.493L221.406 117.661L221.419 117.668L221.432 117.675L222.651 115.493ZM212.291 111.398L213.062 109.02L213.034 109.011L213.005 109.002L212.291 111.398ZM193.201 107.34L192.782 109.805L192.8 109.808L192.819 109.811L193.201 107.34ZM167.451 75.7743C170.972 75.4805 176.466 75.3236 179.652 75.4762L179.891 70.4818C176.437 70.3165 170.717 70.4843 167.035 70.7915L167.451 75.7743ZM156.554 77.7908C159.143 77.0035 164.103 76.0775 167.469 75.7727L167.018 70.7931C163.378 71.1228 158.073 72.1029 155.1 73.007L156.554 77.7908ZM149.056 81.3579C150.521 80.2457 153.888 78.5584 156.518 77.8013L155.135 72.9964C152.006 73.8972 148.062 75.8355 146.033 77.375L149.056 81.3579ZM143.346 87.6646C144.154 86.5264 145.22 85.1947 146.288 84.0064C147.386 82.7833 148.361 81.8524 148.991 81.4056L146.098 77.3274C144.998 78.1078 143.721 79.3807 142.568 80.6655C141.382 81.985 140.195 83.4654 139.269 84.771L143.346 87.6646ZM139.424 99.0841C140.429 93.1743 141.321 90.7622 143.399 87.5868L139.216 84.8488C136.634 88.793 135.569 91.9312 134.495 98.2458L139.424 99.0841ZM139.092 116.628C138.459 109.907 138.657 104.161 139.431 99.0384L134.487 98.2915C133.648 103.849 133.446 110.005 134.114 117.097L139.092 116.628ZM141.165 134.57C140.487 130.387 139.65 122.316 139.091 116.619L134.115 117.107C134.67 122.757 135.521 131 136.229 135.37L141.165 134.57ZM142.281 142.414L141.172 134.618L136.222 135.322L137.331 143.118L142.281 142.414ZM125.356 158.846C127.213 156.657 131.623 152.497 141.365 144.72L138.246 140.813C128.505 148.589 123.746 153.014 121.543 155.612L125.356 158.846ZM118.047 168.894C119.947 165.72 123.277 161.245 125.339 158.866L121.56 155.591C119.332 158.163 115.825 162.872 113.757 166.326L118.047 168.894ZM112.119 180.638C113.346 177.382 116.013 172.117 118.016 168.945L113.788 166.276C111.627 169.699 108.8 175.266 107.44 178.874L112.119 180.638ZM108.433 194.235C109.148 190.026 110.788 183.904 112.094 180.7L107.464 178.812C105.986 182.438 104.263 188.93 103.504 193.397L108.433 194.235ZM107.417 208.286C107.334 204.768 107.724 198.403 108.433 194.235L103.504 193.397C102.737 197.904 102.328 204.59 102.418 208.404L107.417 208.286ZM108.916 220.775C108.222 217.468 107.595 211.816 107.414 208.22L102.421 208.471C102.61 212.241 103.26 218.166 104.023 221.802L108.916 220.775ZM112.951 233.157C111.408 229.696 109.608 224.072 108.916 220.775L104.023 221.802C104.788 225.448 106.698 231.41 108.385 235.193L112.951 233.157ZM119.84 243.674C117.723 241.361 114.552 236.554 112.93 233.11L108.407 235.24C110.213 239.074 113.65 244.317 116.153 247.05L119.84 243.674ZM129.482 250.773C126.402 249.228 122.042 245.887 119.77 243.6L116.223 247.124C118.802 249.72 123.591 253.412 127.24 255.243L129.482 250.773ZM170.865 259.425C136.778 253.934 134.747 253.45 129.494 250.779L127.228 255.236C133.366 258.357 136.427 258.942 170.07 264.361L170.865 259.425ZM206.9 265.249L170.867 259.425L170.069 264.361L206.102 270.185L206.9 265.249ZM224.101 258.063C221.573 259.856 216.507 262.294 205.822 265.311L207.181 270.123C218.019 267.062 223.754 264.439 226.994 262.141L224.101 258.063ZM232.804 249.597C230.727 252.29 226.763 256.175 224.101 258.063L226.994 262.141C230.099 259.938 234.415 255.696 236.763 252.65L232.804 249.597ZM240.172 238.134C238.314 241.55 234.944 246.747 232.785 249.622L236.783 252.625C239.082 249.563 242.585 244.162 244.565 240.522L240.172 238.134ZM247.489 217.611C244.361 230.111 243.156 232.607 240.169 238.14L244.568 240.516C247.8 234.529 249.137 231.622 252.34 218.825L247.489 217.611ZM247.031 194.337C247.764 198.259 248.079 200.547 248.116 203.609C248.155 206.76 247.899 210.736 247.42 218.054L252.409 218.381C252.882 211.153 253.157 206.941 253.116 203.549C253.074 200.069 252.701 197.46 251.947 193.42L247.031 194.337ZM243.066 179.952C244.333 183.38 246.121 189.851 247.039 194.376L251.939 193.381C250.981 188.661 249.13 181.935 247.756 178.219L243.066 179.952ZM236.646 167.368C238.83 171.052 241.817 176.707 243.078 179.983L247.745 178.188C246.332 174.518 243.177 168.579 240.947 164.818L236.646 167.368ZM232.447 160.723L236.683 167.428L240.91 164.757L236.674 158.052L232.447 160.723ZM245.989 128.871C244.408 132.945 240.693 141.245 232.317 158.285L236.804 160.49C245.178 143.455 248.982 134.979 250.65 130.68L245.989 128.871ZM249.53 114.938C249.116 119.051 247.753 124.267 245.985 128.881L250.654 130.67C252.535 125.76 254.035 120.103 254.505 115.439L249.53 114.938ZM249.091 104.627C249.667 106.646 249.891 111.091 249.528 114.955L254.507 115.422C254.894 111.299 254.722 106.142 253.9 103.257L249.091 104.627ZM245.374 97.1879C246.818 99.2247 248.562 102.624 249.079 104.58L253.913 103.304C253.195 100.587 251.116 96.6417 249.452 94.2952L245.374 97.1879ZM238.39 90.624C240.768 92.2617 244.035 95.301 245.374 97.1879L249.452 94.2952C247.681 91.7987 243.933 88.3705 241.226 86.5061L238.39 90.624ZM227.176 84.9318C230.81 86.4478 235.973 89.0065 238.418 90.6426L241.199 86.4874C238.361 84.5879 232.856 81.8836 229.102 80.3173L227.176 84.9318ZM203.054 78.9668C214.35 81.0905 222.994 83.2711 227.216 84.948L229.062 80.3011C224.352 78.4304 215.289 76.1795 203.978 74.0529L203.054 78.9668ZM179.726 75.4786C182.81 75.5344 193.274 77.0996 203.047 78.9655L203.985 74.0542C194.305 72.2062 183.407 70.5444 179.817 70.4795L179.726 75.4786ZM165.614 108.333C167.33 107.931 171.614 107.584 175.041 107.675L175.174 102.677C171.532 102.58 166.773 102.927 164.474 103.465L165.614 108.333ZM161.928 109.222L165.63 108.33L164.458 103.469L160.756 104.361L161.928 109.222ZM165.262 125.54C164.723 120.412 164.173 114.181 163.839 106.68L158.844 106.902C159.184 114.528 159.743 120.861 160.289 126.061L165.262 125.54ZM166.551 135.632C166.579 135.708 166.522 135.522 166.406 134.821C166.308 134.225 166.193 133.426 166.067 132.472C165.816 130.568 165.531 128.107 165.262 125.54L160.289 126.061C160.561 128.657 160.852 131.164 161.11 133.125C161.239 134.103 161.362 134.962 161.473 135.634C161.566 136.202 161.689 136.895 161.855 137.35L166.551 135.632ZM170.084 134.751C167.679 135.023 166.544 135.086 165.975 135.021C165.736 134.994 165.887 134.969 166.136 135.147C166.44 135.364 166.552 135.634 166.568 135.679L161.839 137.303C162.058 137.941 162.46 138.666 163.231 139.216C163.946 139.727 164.74 139.913 165.408 139.989C166.655 140.131 168.398 139.974 170.647 139.719L170.084 134.751ZM185.297 135.011C180.321 134.475 173.434 134.336 170.059 134.754L170.672 139.716C173.514 139.365 179.976 139.467 184.762 139.983L185.297 135.011ZM202.522 139.106C196.868 136.874 191.864 135.71 185.294 135.011L184.765 139.983C190.947 140.641 195.504 141.711 200.686 143.757L202.522 139.106ZM212.147 143.009C211.026 142.489 206.68 140.72 202.509 139.101L200.7 143.762C204.902 145.393 209.093 147.104 210.041 147.544L212.147 143.009ZM216.064 133.948C213.601 139.008 212.322 141.537 211.475 142.75C211.032 143.385 210.996 143.216 211.353 143.078C211.92 142.859 212.343 143.102 212.157 143.014L210.03 147.539C210.69 147.849 211.834 148.253 213.158 147.741C214.272 147.31 215.028 146.395 215.574 145.612C216.705 143.993 218.189 141.007 220.56 136.136L216.064 133.948ZM222.353 119.814C221.795 121.469 219.027 127.858 216.064 133.948L220.56 136.136C223.522 130.047 226.42 123.401 227.091 121.411L222.353 119.814ZM221.432 117.675C222.151 118.077 222.544 118.322 222.777 118.505C222.986 118.668 222.875 118.637 222.789 118.418C222.703 118.202 222.761 118.105 222.722 118.37C222.678 118.666 222.564 119.11 222.328 119.891L227.115 121.334C227.345 120.572 227.564 119.804 227.668 119.101C227.776 118.368 227.797 117.484 227.436 116.574C227.074 115.663 226.451 115.031 225.857 114.566C225.287 114.121 224.587 113.711 223.87 113.31L221.432 117.675ZM211.519 113.776C215.462 115.055 219.9 116.796 221.406 117.661L223.896 113.325C221.891 112.173 217.002 110.298 213.062 109.02L211.519 113.776ZM192.819 109.811C199.268 110.807 207.759 112.655 211.576 113.794L213.005 109.002C208.906 107.78 200.18 105.889 193.583 104.869L192.819 109.811ZM175.051 107.675C178.299 107.748 186.304 108.703 192.782 109.805L193.62 104.876C187.085 103.764 178.788 102.758 175.164 102.677L175.051 107.675Z" fill="#1F1B37"/>
<mask id="mask1_15_47" style="mask-type:luminance" maskUnits="userSpaceOnUse" x="134" y="148" width="85" height="110">
<path d="M218.261 168.621L176.739 148.824L134.133 238.187L175.655 257.984L218.261 168.621Z" fill="white"/>
</mask>
<g mask="url(#mask1_15_47)">
<path d="M205.411 172.048C207.098 169.918 208.021 166.931 207.632 164.86C207.243 162.789 205.647 162.2 203.784 163.411L161.417 191.195C159.758 192.289 158.251 194.591 157.655 196.963C157.059 199.335 157.472 201.331 158.705 201.919L169.039 206.846L146.983 234.76C145.296 236.89 144.372 239.877 144.761 241.948C145.151 244.018 146.746 244.608 148.609 243.397L190.976 215.613C192.635 214.519 194.142 212.217 194.739 209.845C195.335 207.473 194.923 205.498 193.681 204.906L183.347 199.979L205.411 172.048Z" fill="#242040"/>
</g>
</g>
<path d="M250.5 198L251 201L251 204.5C251 204.5 251 210.5 251 211C251 211.5 249.561 220.575 249 222C248.439 223.425 244.5 236 244.5 236" stroke="#1F1B37" stroke-width="4" stroke-linecap="round" stroke-linejoin="round"/>
<path d="M116.5 167L111 175.5L108 183.5L106 191L104.706 202L104.706 212.088L105.706 219.588" stroke="#1F1B37" stroke-width="4" stroke-linecap="round" stroke-linejoin="round"/>
<path d="M100.74 277.541C98.2869 277.541 96.3402 277.101 94.9002 276.221C93.4869 275.314 92.4869 274.061 91.9002 272.461C91.3136 270.834 91.0202 268.927 91.0202 266.741V255.061C91.0202 252.821 91.3136 250.901 91.9002 249.301C92.4869 247.674 93.4869 246.421 94.9002 245.541C96.3402 244.661 98.2869 244.221 100.74 244.221C103.14 244.221 105.007 244.621 106.34 245.421C107.7 246.194 108.66 247.287 109.22 248.701C109.78 250.114 110.06 251.741 110.06 253.581V256.381H103.06V253.141C103.06 252.501 103.02 251.887 102.94 251.301C102.887 250.714 102.7 250.234 102.38 249.861C102.06 249.461 101.514 249.261 100.74 249.261C99.9936 249.261 99.4336 249.461 99.0602 249.861C98.7136 250.261 98.4869 250.767 98.3802 251.381C98.3002 251.967 98.2602 252.594 98.2602 253.261V268.501C98.2602 269.221 98.3136 269.887 98.4202 270.501C98.5536 271.087 98.7936 271.567 99.1402 271.941C99.5136 272.287 100.047 272.461 100.74 272.461C101.487 272.461 102.02 272.274 102.34 271.901C102.66 271.501 102.86 270.994 102.94 270.381C103.02 269.767 103.06 269.141 103.06 268.501V265.101H110.06V267.901C110.06 269.741 109.78 271.394 109.22 272.861C108.687 274.301 107.74 275.447 106.38 276.301C105.047 277.127 103.167 277.541 100.74 277.541ZM113.999 277.061V244.661H122.919C125.106 244.661 126.999 244.901 128.599 245.381C130.199 245.861 131.439 246.727 132.319 247.981C133.226 249.207 133.679 250.954 133.679 253.221C133.679 254.554 133.573 255.741 133.359 256.781C133.146 257.821 132.746 258.727 132.159 259.501C131.599 260.247 130.786 260.874 129.719 261.381L134.159 277.061H126.759L123.199 262.541H121.159V277.061H113.999ZM121.159 258.421H123.159C124.173 258.421 124.959 258.247 125.519 257.901C126.079 257.527 126.466 257.007 126.679 256.341C126.919 255.647 127.039 254.821 127.039 253.861C127.039 252.474 126.786 251.394 126.279 250.621C125.773 249.847 124.839 249.461 123.479 249.461H121.159V258.421ZM146.951 277.541C144.525 277.541 142.605 277.114 141.191 276.261C139.778 275.407 138.765 274.181 138.151 272.581C137.538 270.981 137.231 269.074 137.231 266.861V254.821C137.231 252.581 137.538 250.674 138.151 249.101C138.765 247.527 139.778 246.327 141.191 245.501C142.605 244.647 144.525 244.221 146.951 244.221C149.405 244.221 151.338 244.647 152.751 245.501C154.191 246.327 155.218 247.527 155.831 249.101C156.445 250.674 156.751 252.581 156.751 254.821V266.861C156.751 269.074 156.445 270.981 155.831 272.581C155.218 274.181 154.191 275.407 152.751 276.261C151.338 277.114 149.405 277.541 146.951 277.541ZM146.951 272.461C147.698 272.461 148.245 272.274 148.591 271.901C148.938 271.527 149.165 271.047 149.271 270.461C149.378 269.874 149.431 269.274 149.431 268.661V253.061C149.431 252.421 149.378 251.821 149.271 251.261C149.165 250.674 148.938 250.194 148.591 249.821C148.245 249.447 147.698 249.261 146.951 249.261C146.258 249.261 145.738 249.447 145.391 249.821C145.045 250.194 144.818 250.674 144.711 251.261C144.605 251.821 144.551 252.421 144.551 253.061V268.661C144.551 269.274 144.591 269.874 144.671 270.461C144.778 271.047 144.991 271.527 145.311 271.901C145.658 272.274 146.205 272.461 146.951 272.461ZM169.709 277.541C167.682 277.541 165.989 277.181 164.629 276.461C163.269 275.741 162.242 274.634 161.549 273.141C160.855 271.621 160.469 269.661 160.389 267.261L166.509 266.341C166.535 267.727 166.655 268.847 166.869 269.701C167.109 270.554 167.429 271.167 167.829 271.541C168.255 271.914 168.762 272.101 169.349 272.101C170.095 272.101 170.575 271.847 170.789 271.341C171.029 270.834 171.149 270.301 171.149 269.741C171.149 268.407 170.829 267.287 170.189 266.381C169.549 265.447 168.682 264.514 167.589 263.581L164.789 261.141C163.562 260.101 162.522 258.927 161.669 257.621C160.842 256.287 160.429 254.647 160.429 252.701C160.429 249.954 161.242 247.861 162.869 246.421C164.495 244.954 166.709 244.221 169.509 244.221C171.242 244.221 172.629 244.514 173.669 245.101C174.735 245.687 175.535 246.461 176.069 247.421C176.629 248.354 177.002 249.354 177.189 250.421C177.402 251.461 177.522 252.461 177.549 253.421L171.389 254.181C171.362 253.221 171.295 252.394 171.189 251.701C171.109 250.981 170.922 250.434 170.629 250.061C170.335 249.661 169.882 249.461 169.269 249.461C168.602 249.461 168.109 249.741 167.789 250.301C167.495 250.861 167.349 251.421 167.349 251.981C167.349 253.181 167.629 254.167 168.189 254.941C168.775 255.687 169.535 256.474 170.469 257.301L173.149 259.661C174.562 260.861 175.749 262.221 176.709 263.741C177.695 265.261 178.189 267.141 178.189 269.381C178.189 270.901 177.842 272.287 177.149 273.541C176.455 274.767 175.469 275.741 174.189 276.461C172.935 277.181 171.442 277.541 169.709 277.541ZM189.631 277.541C187.604 277.541 185.911 277.181 184.551 276.461C183.191 275.741 182.164 274.634 181.471 273.141C180.777 271.621 180.391 269.661 180.311 267.261L186.431 266.341C186.457 267.727 186.577 268.847 186.791 269.701C187.031 270.554 187.351 271.167 187.751 271.541C188.177 271.914 188.684 272.101 189.271 272.101C190.017 272.101 190.497 271.847 190.711 271.341C190.951 270.834 191.071 270.301 191.071 269.741C191.071 268.407 190.751 267.287 190.111 266.381C189.471 265.447 188.604 264.514 187.511 263.581L184.711 261.141C183.484 260.101 182.444 258.927 181.591 257.621C180.764 256.287 180.351 254.647 180.351 252.701C180.351 249.954 181.164 247.861 182.791 246.421C184.417 244.954 186.631 244.221 189.431 244.221C191.164 244.221 192.551 244.514 193.591 245.101C194.657 245.687 195.457 246.461 195.991 247.421C196.551 248.354 196.924 249.354 197.111 250.421C197.324 251.461 197.444 252.461 197.471 253.421L191.311 254.181C191.284 253.221 191.217 252.394 191.111 251.701C191.031 250.981 190.844 250.434 190.551 250.061C190.257 249.661 189.804 249.461 189.191 249.461C188.524 249.461 188.031 249.741 187.711 250.301C187.417 250.861 187.271 251.421 187.271 251.981C187.271 253.181 187.551 254.167 188.111 254.941C188.697 255.687 189.457 256.474 190.391 257.301L193.071 259.661C194.484 260.861 195.671 262.221 196.631 263.741C197.617 265.261 198.111 267.141 198.111 269.381C198.111 270.901 197.764 272.287 197.071 273.541C196.377 274.767 195.391 275.741 194.111 276.461C192.857 277.181 191.364 277.541 189.631 277.541ZM201.577 277.061V244.661H208.737V272.221H216.177V277.061H201.577ZM217.752 277.061L223.872 244.661H232.032L238.072 277.061H231.472L230.392 270.221H225.632L224.512 277.061H217.752ZM226.272 265.941H229.712L227.992 253.301L226.272 265.941ZM241.343 277.061V244.661H249.783C251.17 244.661 252.476 244.767 253.703 244.981C254.956 245.194 256.063 245.607 257.023 246.221C257.983 246.807 258.73 247.661 259.263 248.781C259.823 249.874 260.103 251.327 260.103 253.141C260.103 254.447 259.903 255.554 259.503 256.461C259.13 257.341 258.583 258.047 257.863 258.581C257.17 259.114 256.33 259.474 255.343 259.661C256.596 259.821 257.65 260.234 258.503 260.901C259.356 261.541 259.996 262.407 260.423 263.501C260.876 264.594 261.103 265.914 261.103 267.461C261.103 269.141 260.876 270.594 260.423 271.821C259.996 273.021 259.37 274.007 258.543 274.781C257.716 275.554 256.69 276.127 255.463 276.501C254.263 276.874 252.876 277.061 251.303 277.061H241.343ZM248.503 272.061H250.023C251.596 272.061 252.676 271.661 253.263 270.861C253.876 270.061 254.183 268.887 254.183 267.341C254.183 266.114 254.05 265.141 253.783 264.421C253.516 263.701 253.076 263.181 252.463 262.861C251.85 262.514 251.023 262.341 249.983 262.341H248.503V272.061ZM248.503 257.621H249.903C250.996 257.621 251.823 257.461 252.383 257.141C252.943 256.794 253.316 256.301 253.503 255.661C253.716 255.021 253.823 254.247 253.823 253.341C253.823 252.487 253.663 251.781 253.343 251.221C253.05 250.634 252.596 250.194 251.983 249.901C251.396 249.607 250.65 249.461 249.743 249.461H248.503V257.621Z" fill="#13F2DC"/>
<mask id="mask2_15_47" style="mask-type:luminance" maskUnits="userSpaceOnUse" x="85" y="239" width="183" height="45">
<path d="M267.06 239.061H85.0602V283.061H267.06V239.061Z" fill="white"/>
<path d="M100.74 277.541C98.2869 277.541 96.3402 277.101 94.9002 276.221C93.4869 275.314 92.4869 274.061 91.9002 272.461C91.3136 270.834 91.0202 268.927 91.0202 266.741V255.061C91.0202 252.821 91.3136 250.901 91.9002 249.301C92.4869 247.674 93.4869 246.421 94.9002 245.541C96.3402 244.661 98.2869 244.221 100.74 244.221C103.14 244.221 105.007 244.621 106.34 245.421C107.7 246.194 108.66 247.287 109.22 248.701C109.78 250.114 110.06 251.741 110.06 253.581V256.381H103.06V253.141C103.06 252.501 103.02 251.887 102.94 251.301C102.887 250.714 102.7 250.234 102.38 249.861C102.06 249.461 101.514 249.261 100.74 249.261C99.9936 249.261 99.4336 249.461 99.0602 249.861C98.7136 250.261 98.4869 250.767 98.3802 251.381C98.3002 251.967 98.2602 252.594 98.2602 253.261V268.501C98.2602 269.221 98.3136 269.887 98.4202 270.501C98.5536 271.087 98.7936 271.567 99.1402 271.941C99.5136 272.287 100.047 272.461 100.74 272.461C101.487 272.461 102.02 272.274 102.34 271.901C102.66 271.501 102.86 270.994 102.94 270.381C103.02 269.767 103.06 269.141 103.06 268.501V265.101H110.06V267.901C110.06 269.741 109.78 271.394 109.22 272.861C108.687 274.301 107.74 275.447 106.38 276.301C105.047 277.127 103.167 277.541 100.74 277.541ZM113.999 277.061V244.661H122.919C125.106 244.661 126.999 244.901 128.599 245.381C130.199 245.861 131.439 246.727 132.319 247.981C133.226 249.207 133.679 250.954 133.679 253.221C133.679 254.554 133.573 255.741 133.359 256.781C133.146 257.821 132.746 258.727 132.159 259.501C131.599 260.247 130.786 260.874 129.719 261.381L134.159 277.061H126.759L123.199 262.541H121.159V277.061H113.999ZM121.159 258.421H123.159C124.173 258.421 124.959 258.247 125.519 257.901C126.079 257.527 126.466 257.007 126.679 256.341C126.919 255.647 127.039 254.821 127.039 253.861C127.039 252.474 126.786 251.394 126.279 250.621C125.773 249.847 124.839 249.461 123.479 249.461H121.159V258.421ZM146.951 277.541C144.525 277.541 142.605 277.114 141.191 276.261C139.778 275.407 138.765 274.181 138.151 272.581C137.538 270.981 137.231 269.074 137.231 266.861V254.821C137.231 252.581 137.538 250.674 138.151 249.101C138.765 247.527 139.778 246.327 141.191 245.501C142.605 244.647 144.525 244.221 146.951 244.221C149.405 244.221 151.338 244.647 152.751 245.501C154.191 246.327 155.218 247.527 155.831 249.101C156.445 250.674 156.751 252.581 156.751 254.821V266.861C156.751 269.074 156.445 270.981 155.831 272.581C155.218 274.181 154.191 275.407 152.751 276.261C151.338 277.114 149.405 277.541 146.951 277.541ZM146.951 272.461C147.698 272.461 148.245 272.274 148.591 271.901C148.938 271.527 149.165 271.047 149.271 270.461C149.378 269.874 149.431 269.274 149.431 268.661V253.061C149.431 252.421 149.378 251.821 149.271 251.261C149.165 250.674 148.938 250.194 148.591 249.821C148.245 249.447 147.698 249.261 146.951 249.261C146.258 249.261 145.738 249.447 145.391 249.821C145.045 250.194 144.818 250.674 144.711 251.261C144.605 251.821 144.551 252.421 144.551 253.061V268.661C144.551 269.274 144.591 269.874 144.671 270.461C144.778 271.047 144.991 271.527 145.311 271.901C145.658 272.274 146.205 272.461 146.951 272.461ZM169.709 277.541C167.682 277.541 165.989 277.181 164.629 276.461C163.269 275.741 162.242 274.634 161.549 273.141C160.855 271.621 160.469 269.661 160.389 267.261L166.509 266.341C166.535 267.727 166.655 268.847 166.869 269.701C167.109 270.554 167.429 271.167 167.829 271.541C168.255 271.914 168.762 272.101 169.349 272.101C170.095 272.101 170.575 271.847 170.789 271.341C171.029 270.834 171.149 270.301 171.149 269.741C171.149 268.407 170.829 267.287 170.189 266.381C169.549 265.447 168.682 264.514 167.589 263.581L164.789 261.141C163.562 260.101 162.522 258.927 161.669 257.621C160.842 256.287 160.429 254.647 160.429 252.701C160.429 249.954 161.242 247.861 162.869 246.421C164.495 244.954 166.709 244.221 169.509 244.221C171.242 244.221 172.629 244.514 173.669 245.101C174.735 245.687 175.535 246.461 176.069 247.421C176.629 248.354 177.002 249.354 177.189 250.421C177.402 251.461 177.522 252.461 177.549 253.421L171.389 254.181C171.362 253.221 171.295 252.394 171.189 251.701C171.109 250.981 170.922 250.434 170.629 250.061C170.335 249.661 169.882 249.461 169.269 249.461C168.602 249.461 168.109 249.741 167.789 250.301C167.495 250.861 167.349 251.421 167.349 251.981C167.349 253.181 167.629 254.167 168.189 254.941C168.775 255.687 169.535 256.474 170.469 257.301L173.149 259.661C174.562 260.861 175.749 262.221 176.709 263.741C177.695 265.261 178.189 267.141 178.189 269.381C178.189 270.901 177.842 272.287 177.149 273.541C176.455 274.767 175.469 275.741 174.189 276.461C172.935 277.181 171.442 277.541 169.709 277.541ZM189.631 277.541C187.604 277.541 185.911 277.181 184.551 276.461C183.191 275.741 182.164 274.634 181.471 273.141C180.777 271.621 180.391 269.661 180.311 267.261L186.431 266.341C186.457 267.727 186.577 268.847 186.791 269.701C187.031 270.554 187.351 271.167 187.751 271.541C188.177 271.914 188.684 272.101 189.271 272.101C190.017 272.101 190.497 271.847 190.711 271.341C190.951 270.834 191.071 270.301 191.071 269.741C191.071 268.407 190.751 267.287 190.111 266.381C189.471 265.447 188.604 264.514 187.511 263.581L184.711 261.141C183.484 260.101 182.444 258.927 181.591 257.621C180.764 256.287 180.351 254.647 180.351 252.701C180.351 249.954 181.164 247.861 182.791 246.421C184.417 244.954 186.631 244.221 189.431 244.221C191.164 244.221 192.551 244.514 193.591 245.101C194.657 245.687 195.457 246.461 195.991 247.421C196.551 248.354 196.924 249.354 197.111 250.421C197.324 251.461 197.444 252.461 197.471 253.421L191.311 254.181C191.284 253.221 191.217 252.394 191.111 251.701C191.031 250.981 190.844 250.434 190.551 250.061C190.257 249.661 189.804 249.461 189.191 249.461C188.524 249.461 188.031 249.741 187.711 250.301C187.417 250.861 187.271 251.421 187.271 251.981C187.271 253.181 187.551 254.167 188.111 254.941C188.697 255.687 189.457 256.474 190.391 257.301L193.071 259.661C194.484 260.861 195.671 262.221 196.631 263.741C197.617 265.261 198.111 267.141 198.111 269.381C198.111 270.901 197.764 272.287 197.071 273.541C196.377 274.767 195.391 275.741 194.111 276.461C192.857 277.181 191.364 277.541 189.631 277.541ZM201.577 277.061V244.661H208.737V272.221H216.177V277.061H201.577ZM217.752 277.061L223.872 244.661H232.032L238.072 277.061H231.472L230.392 270.221H225.632L224.512 277.061H217.752ZM226.272 265.941H229.712L227.992 253.301L226.272 265.941ZM241.343 277.061V244.661H249.783C251.17 244.661 252.476 244.767 253.703 244.981C254.956 245.194 256.063 245.607 257.023 246.221C257.983 246.807 258.73 247.661 259.263 248.781C259.823 249.874 260.103 251.327 260.103 253.141C260.103 254.447 259.903 255.554 259.503 256.461C259.13 257.341 258.583 258.047 257.863 258.581C257.17 259.114 256.33 259.474 255.343 259.661C256.596 259.821 257.65 260.234 258.503 260.901C259.356 261.541 259.996 262.407 260.423 263.501C260.876 264.594 261.103 265.914 261.103 267.461C261.103 269.141 260.876 270.594 260.423 271.821C259.996 273.021 259.37 274.007 258.543 274.781C257.716 275.554 256.69 276.127 255.463 276.501C254.263 276.874 252.876 277.061 251.303 277.061H241.343ZM248.503 272.061H250.023C251.596 272.061 252.676 271.661 253.263 270.861C253.876 270.061 254.183 268.887 254.183 267.341C254.183 266.114 254.05 265.141 253.783 264.421C253.516 263.701 253.076 263.181 252.463 262.861C251.85 262.514 251.023 262.341 249.983 262.341H248.503V272.061ZM248.503 257.621H249.903C250.996 257.621 251.823 257.461 252.383 257.141C252.943 256.794 253.316 256.301 253.503 255.661C253.716 255.021 253.823 254.247 253.823 253.341C253.823 252.487 253.663 251.781 253.343 251.221C253.05 250.634 252.596 250.194 251.983 249.901C251.396 249.607 250.65 249.461 249.743 249.461H248.503V257.621Z" fill="black"/>
</mask>
<g mask="url(#mask2_15_47)">
<path d="M94.9002 276.221L92.2005 280.429C92.2311 280.449 92.2619 280.468 92.293 280.487L94.9002 276.221ZM91.9002 272.461L87.1968 274.157C87.1998 274.165 87.2028 274.174 87.2059 274.182L91.9002 272.461ZM91.9002 249.301L96.5946 251.022C96.5977 251.014 96.6007 251.005 96.6037 250.997L91.9002 249.301ZM94.9002 245.541L92.293 241.274C92.2811 241.281 92.2693 241.289 92.2575 241.296L94.9002 245.541ZM106.34 245.421L103.768 249.708C103.801 249.728 103.835 249.748 103.869 249.767L106.34 245.421ZM110.06 256.381V261.381C112.822 261.381 115.06 259.142 115.06 256.381H110.06ZM103.06 256.381H98.0602C98.0602 259.142 100.299 261.381 103.06 261.381V256.381ZM102.94 251.301L97.9608 251.753C97.9675 251.828 97.976 251.902 97.9861 251.976L102.94 251.301ZM102.38 249.861L98.4759 252.984C98.5112 253.028 98.5472 253.072 98.584 253.115L102.38 249.861ZM99.0602 249.861L95.405 246.449C95.3631 246.494 95.322 246.539 95.2818 246.586L99.0602 249.861ZM98.3802 251.381L93.4542 250.524C93.4437 250.584 93.4343 250.644 93.4261 250.705L98.3802 251.381ZM98.4202 270.501L93.4942 271.357C93.5088 271.441 93.5256 271.525 93.5446 271.609L98.4202 270.501ZM99.1402 271.941L95.4763 275.343C95.5603 275.433 95.6475 275.521 95.738 275.605L99.1402 271.941ZM102.34 271.901L106.137 275.155C106.173 275.112 106.209 275.068 106.245 275.024L102.34 271.901ZM103.06 265.101V260.101C100.299 260.101 98.0602 262.339 98.0602 265.101H103.06ZM110.06 265.101H115.06C115.06 262.339 112.822 260.101 110.06 260.101V265.101ZM109.22 272.861L104.549 271.077C104.543 271.093 104.537 271.108 104.531 271.124L109.22 272.861ZM106.38 276.301L109.015 280.55C109.023 280.545 109.03 280.541 109.038 280.536L106.38 276.301ZM100.74 272.541C98.8138 272.541 97.8838 272.184 97.5075 271.954L92.293 280.487C94.7967 282.017 97.76 282.541 100.74 282.541V272.541ZM97.6 272.012C97.1198 271.704 96.8117 271.331 96.5946 270.739L87.2059 274.182C88.1621 276.79 89.854 278.924 92.2005 280.429L97.6 272.012ZM96.6037 270.764C96.2574 269.804 96.0202 268.495 96.0202 266.741H86.0202C86.0202 269.359 86.3698 271.864 87.1968 274.157L96.6037 270.764ZM96.0202 266.741V255.061H86.0202V266.741H96.0202ZM96.0202 255.061C96.0202 253.233 96.2625 251.928 96.5946 251.022L87.2059 247.579C86.3646 249.874 86.0202 252.408 86.0202 255.061H96.0202ZM96.6037 250.997C96.8251 250.383 97.1223 250.047 97.543 249.785L92.2575 241.296C89.8515 242.794 88.1487 244.965 87.1968 247.604L96.6037 250.997ZM97.5075 249.807C97.8838 249.577 98.8138 249.221 100.74 249.221V239.221C97.76 239.221 94.7967 239.744 92.293 241.274L97.5075 249.807ZM100.74 249.221C102.686 249.221 103.525 249.562 103.768 249.708L108.913 241.133C106.489 239.679 103.594 239.221 100.74 239.221V249.221ZM103.869 249.767C104.27 249.995 104.444 250.22 104.572 250.542L113.869 246.859C112.876 244.354 111.13 242.392 108.812 241.074L103.869 249.767ZM104.572 250.542C104.856 251.26 105.06 252.242 105.06 253.581H115.06C115.06 251.239 114.704 248.967 113.869 246.859L104.572 250.542ZM105.06 253.581V256.381H115.06V253.581H105.06ZM110.06 251.381H103.06V261.381H110.06V251.381ZM108.06 256.381V253.141H98.0602V256.381H108.06ZM108.06 253.141C108.06 252.293 108.007 251.453 107.894 250.625L97.9861 251.976C98.0332 252.322 98.0602 252.709 98.0602 253.141H108.06ZM107.92 250.848C107.791 249.437 107.297 247.914 106.177 246.607L98.584 253.115C98.1033 252.554 97.9824 251.991 97.9608 251.753L107.92 250.848ZM106.285 246.737C104.612 244.647 102.241 244.261 100.74 244.261V254.261C100.722 254.261 100.437 254.262 100.012 254.106C99.5465 253.936 98.9619 253.592 98.4759 252.984L106.285 246.737ZM100.74 244.261C99.1311 244.261 97.03 244.708 95.405 246.449L102.716 253.272C101.837 254.213 100.856 254.261 100.74 254.261V244.261ZM95.2818 246.586C94.2422 247.785 93.6888 249.175 93.4542 250.524L103.306 252.237C103.285 252.36 103.185 252.736 102.839 253.135L95.2818 246.586ZM93.4261 250.705C93.312 251.541 93.2602 252.396 93.2602 253.261H103.26C103.26 252.792 103.288 252.393 103.334 252.056L93.4261 250.705ZM93.2602 253.261V268.501H103.26V253.261H93.2602ZM93.2602 268.501C93.2602 269.464 93.3314 270.421 93.4942 271.357L103.346 269.644C103.296 269.353 103.26 268.977 103.26 268.501H93.2602ZM93.5446 271.609C93.8374 272.897 94.4306 274.217 95.4763 275.343L102.804 268.538C103.157 268.918 103.27 269.277 103.296 269.392L93.5446 271.609ZM95.738 275.605C97.3266 277.08 99.2468 277.461 100.74 277.461V267.461C100.847 267.461 101.701 267.495 102.542 268.277L95.738 275.605ZM100.74 277.461C102.184 277.461 104.463 277.107 106.137 275.155L98.544 268.647C99.0382 268.07 99.6096 267.755 100.048 267.601C100.452 267.46 100.721 267.461 100.74 267.461V277.461ZM106.245 275.024C107.244 273.775 107.725 272.358 107.898 271.027L97.9822 269.734C97.9959 269.63 98.0767 269.226 98.4359 268.777L106.245 275.024ZM107.898 271.027C108.007 270.192 108.06 269.349 108.06 268.501H98.0602C98.0602 268.932 98.0333 269.342 97.9822 269.734L107.898 271.027ZM108.06 268.501V265.101H98.0602V268.501H108.06ZM103.06 270.101H110.06V260.101H103.06V270.101ZM105.06 265.101V267.901H115.06V265.101H105.06ZM105.06 267.901C105.06 269.234 104.858 270.269 104.549 271.077L113.891 274.644C114.703 272.519 115.06 270.247 115.06 267.901H105.06ZM104.531 271.124C104.399 271.48 104.194 271.769 103.723 272.065L109.038 280.536C111.286 279.125 112.974 277.121 113.909 274.597L104.531 271.124ZM103.746 272.051C103.525 272.188 102.704 272.541 100.74 272.541V282.541C103.629 282.541 106.569 282.066 109.015 280.55L103.746 272.051ZM113.999 277.061H108.999C108.999 279.822 111.238 282.061 113.999 282.061V277.061ZM113.999 244.661V239.661C111.238 239.661 108.999 241.899 108.999 244.661H113.999ZM132.319 247.981L128.227 250.854C128.251 250.887 128.274 250.92 128.298 250.953L132.319 247.981ZM132.159 259.501L128.176 256.479C128.17 256.486 128.165 256.493 128.159 256.501L132.159 259.501ZM129.719 261.381L127.574 256.864C125.37 257.911 124.244 260.395 124.908 262.743L129.719 261.381ZM134.159 277.061V282.061C135.726 282.061 137.202 281.326 138.147 280.076C139.093 278.826 139.397 277.206 138.97 275.698L134.159 277.061ZM126.759 277.061L121.903 278.251C122.451 280.488 124.456 282.061 126.759 282.061V277.061ZM123.199 262.541L128.055 261.35C127.507 259.113 125.502 257.541 123.199 257.541V262.541ZM121.159 262.541V257.541C118.398 257.541 116.159 259.779 116.159 262.541H121.159ZM121.159 277.061V282.061C123.921 282.061 126.159 279.822 126.159 277.061H121.159ZM121.159 258.421H116.159C116.159 261.182 118.398 263.421 121.159 263.421V258.421ZM125.519 257.901L128.151 262.152C128.199 262.122 128.246 262.092 128.293 262.061L125.519 257.901ZM126.679 256.341L121.954 254.705C121.942 254.742 121.929 254.779 121.917 254.817L126.679 256.341ZM121.159 249.461V244.461C118.398 244.461 116.159 246.699 116.159 249.461H121.159ZM118.999 277.061V244.661H108.999V277.061H118.999ZM113.999 249.661H122.919V239.661H113.999V249.661ZM122.919 249.661C124.761 249.661 126.147 249.865 127.163 250.17L130.036 240.591C127.852 239.936 125.451 239.661 122.919 239.661V249.661ZM127.163 250.17C127.791 250.358 128.052 250.604 128.227 250.854L136.411 245.107C134.827 242.85 132.607 241.363 130.036 240.591L127.163 250.17ZM128.298 250.953C128.327 250.991 128.679 251.529 128.679 253.221H138.679C138.679 250.379 138.125 247.423 136.34 245.009L128.298 250.953ZM128.679 253.221C128.679 254.298 128.592 255.138 128.461 255.776L138.257 257.785C138.553 256.343 138.679 254.81 138.679 253.221H128.679ZM128.461 255.776C128.384 256.153 128.27 256.355 128.176 256.479L136.143 262.522C137.222 261.099 137.908 259.488 138.257 257.785L128.461 255.776ZM128.159 256.501C128.198 256.45 128.098 256.615 127.574 256.864L131.865 265.897C133.474 265.133 135.001 264.045 136.159 262.501L128.159 256.501ZM124.908 262.743L129.348 278.423L138.97 275.698L134.53 260.018L124.908 262.743ZM134.159 272.061H126.759V282.061H134.159V272.061ZM131.615 275.87L128.055 261.35L118.343 263.731L121.903 278.251L131.615 275.87ZM123.199 257.541H121.159V267.541H123.199V257.541ZM116.159 262.541V277.061H126.159V262.541H116.159ZM121.159 272.061H113.999V282.061H121.159V272.061ZM121.159 263.421H123.159V253.421H121.159V263.421ZM123.159 263.421C124.641 263.421 126.483 263.184 128.151 262.152L122.888 253.649C123.18 253.468 123.395 253.416 123.433 253.408C123.47 253.4 123.392 253.421 123.159 253.421V263.421ZM128.293 262.061C129.835 261.033 130.898 259.563 131.441 257.864L121.917 254.817C121.965 254.668 122.056 254.463 122.217 254.247C122.379 254.029 122.567 253.859 122.746 253.74L128.293 262.061ZM131.404 257.976C131.873 256.623 132.039 255.215 132.039 253.861H122.039C122.039 254.426 121.966 254.672 121.954 254.705L131.404 257.976ZM132.039 253.861C132.039 251.956 131.706 249.78 130.462 247.88L122.097 253.361C121.973 253.172 121.962 253.071 121.981 253.152C122.002 253.239 122.039 253.461 122.039 253.861H132.039ZM130.462 247.88C128.646 245.109 125.675 244.461 123.479 244.461V254.461C123.717 254.461 123.596 254.499 123.286 254.37C122.914 254.216 122.445 253.892 122.097 253.361L130.462 247.88ZM123.479 244.461H121.159V254.461H123.479V244.461ZM116.159 249.461V258.421H126.159V249.461H116.159ZM141.191 245.501L143.716 249.816C143.736 249.805 143.756 249.793 143.776 249.781L141.191 245.501ZM152.751 245.501L150.167 249.781C150.198 249.8 150.23 249.819 150.262 249.837L152.751 245.501ZM152.751 276.261L150.202 271.959C150.19 271.966 150.179 271.973 150.167 271.98L152.751 276.261ZM149.271 251.261L144.352 252.155C144.354 252.169 144.357 252.182 144.359 252.196L149.271 251.261ZM144.711 251.261L149.623 252.196C149.625 252.182 149.628 252.169 149.631 252.155L144.711 251.261ZM144.671 270.461L139.717 271.136C139.727 271.209 139.739 271.282 139.752 271.355L144.671 270.461ZM145.311 271.901L141.515 275.155C141.558 275.205 141.602 275.254 141.647 275.303L145.311 271.901ZM146.951 272.541C145.035 272.541 144.125 272.191 143.776 271.98L138.607 280.541C141.084 282.036 144.014 282.541 146.951 282.541V272.541ZM143.776 271.98C143.353 271.725 143.051 271.394 142.82 270.791L133.482 274.37C134.478 276.967 136.203 279.089 138.607 280.541L143.776 271.98ZM142.82 270.791C142.479 269.902 142.231 268.632 142.231 266.861H132.231C132.231 269.516 132.597 272.059 133.482 274.37L142.82 270.791ZM142.231 266.861V254.821H132.231V266.861H142.231ZM142.231 254.821C142.231 253.01 142.482 251.756 142.81 250.917L133.493 247.285C132.593 249.592 132.231 252.151 132.231 254.821H142.231ZM142.81 250.917C143.028 250.358 143.307 250.055 143.716 249.816L138.667 241.185C136.248 242.599 134.501 244.697 133.493 247.285L142.81 250.917ZM143.776 249.781C144.125 249.57 145.035 249.221 146.951 249.221V239.221C144.014 239.221 141.084 239.725 138.607 241.22L143.776 249.781ZM146.951 249.221C148.907 249.221 149.824 249.574 150.167 249.781L155.336 241.22C152.852 239.721 149.903 239.221 146.951 239.221V249.221ZM150.262 249.837C150.694 250.085 150.966 250.387 151.173 250.917L160.49 247.285C159.47 244.668 157.688 242.569 155.241 241.164L150.262 249.837ZM151.173 250.917C151.5 251.756 151.751 253.01 151.751 254.821H161.751C161.751 252.151 161.389 249.592 160.49 247.285L151.173 250.917ZM151.751 254.821V266.861H161.751V254.821H151.751ZM151.751 266.861C151.751 268.632 151.503 269.902 151.162 270.791L160.5 274.37C161.386 272.059 161.751 269.516 161.751 266.861H151.751ZM151.162 270.791C150.942 271.366 150.648 271.695 150.202 271.959L155.3 280.562C157.734 279.12 159.494 276.995 160.5 274.37L151.162 270.791ZM150.167 271.98C149.824 272.187 148.907 272.541 146.951 272.541V282.541C149.903 282.541 152.852 282.04 155.336 280.541L150.167 271.98ZM146.951 277.461C148.435 277.461 150.595 277.091 152.255 275.303L144.927 268.498C145.388 268.002 145.903 267.726 146.305 267.589C146.679 267.461 146.927 267.461 146.951 267.461V277.461ZM152.255 275.303C153.355 274.118 153.943 272.717 154.191 271.355L144.352 269.566C144.386 269.377 144.521 268.936 144.927 268.498L152.255 275.303ZM154.191 271.355C154.352 270.465 154.431 269.565 154.431 268.661H144.431C144.431 268.982 144.403 269.283 144.352 269.566L154.191 271.355ZM154.431 268.661V253.061H144.431V268.661H154.431ZM154.431 253.061C154.431 252.144 154.355 251.228 154.183 250.325L144.359 252.196C144.401 252.413 144.431 252.697 144.431 253.061H154.431ZM154.191 250.366C153.943 249.004 153.355 247.603 152.255 246.418L144.927 253.223C144.521 252.785 144.386 252.344 144.352 252.155L154.191 250.366ZM152.255 246.418C150.595 244.63 148.435 244.261 146.951 244.261V254.261C146.927 254.261 146.679 254.26 146.305 254.132C145.903 253.995 145.388 253.719 144.927 253.223L152.255 246.418ZM146.951 244.261C145.388 244.261 143.324 244.699 141.727 246.418L149.055 253.223C148.152 254.196 147.128 254.261 146.951 254.261V244.261ZM141.727 246.418C140.627 247.603 140.04 249.004 139.792 250.366L149.631 252.155C149.596 252.344 149.462 252.785 149.055 253.223L141.727 246.418ZM139.799 250.325C139.627 251.228 139.551 252.144 139.551 253.061H149.551C149.551 252.697 149.582 252.413 149.623 252.196L139.799 250.325ZM139.551 253.061V268.661H149.551V253.061H139.551ZM139.551 268.661C139.551 269.492 139.605 270.318 139.717 271.136L149.625 269.785C149.577 269.43 149.551 269.056 149.551 268.661H139.551ZM139.752 271.355C139.983 272.629 140.507 273.978 141.515 275.155L149.107 268.647C149.476 269.076 149.572 269.466 149.591 269.566L139.752 271.355ZM141.647 275.303C143.308 277.091 145.467 277.461 146.951 277.461V267.461C146.975 267.461 147.223 267.461 147.597 267.589C148 267.726 148.515 268.002 148.975 268.498L141.647 275.303ZM161.549 273.141L157 275.216C157.004 275.226 157.009 275.236 157.014 275.246L161.549 273.141ZM160.389 267.261L159.645 262.316C157.136 262.693 155.307 264.891 155.391 267.427L160.389 267.261ZM166.509 266.341L171.508 266.244C171.48 264.806 170.834 263.449 169.734 262.52C168.635 261.592 167.188 261.182 165.765 261.396L166.509 266.341ZM166.869 269.701L162.018 270.913C162.03 270.96 162.042 271.007 162.055 271.054L166.869 269.701ZM167.829 271.541L164.417 275.196C164.456 275.232 164.496 275.268 164.536 275.303L167.829 271.541ZM170.789 271.341L166.27 269.2C166.239 269.266 166.209 269.333 166.181 269.4L170.789 271.341ZM170.189 266.381L166.065 269.208C166.078 269.227 166.091 269.245 166.104 269.264L170.189 266.381ZM167.589 263.581L164.304 267.35C164.317 267.361 164.329 267.372 164.342 267.383L167.589 263.581ZM164.789 261.141L168.074 257.371C168.057 257.356 168.039 257.341 168.022 257.327L164.789 261.141ZM161.669 257.621L157.419 260.255C157.44 260.289 157.461 260.322 157.482 260.354L161.669 257.621ZM162.869 246.421L166.183 250.164C166.194 250.154 166.206 250.144 166.217 250.134L162.869 246.421ZM173.669 245.101L171.212 249.455C171.228 249.464 171.243 249.473 171.259 249.482L173.669 245.101ZM176.069 247.421L171.698 249.849C171.725 249.897 171.753 249.945 171.781 249.993L176.069 247.421ZM177.189 250.421L172.264 251.282C172.272 251.33 172.281 251.378 172.291 251.425L177.189 250.421ZM177.549 253.421L178.161 258.383C180.719 258.067 182.618 255.858 182.547 253.282L177.549 253.421ZM171.389 254.181L166.391 254.319C166.43 255.727 167.061 257.054 168.129 257.972C169.197 258.89 170.603 259.315 172.001 259.143L171.389 254.181ZM171.189 251.701L166.219 252.253C166.227 252.322 166.236 252.392 166.247 252.461L171.189 251.701ZM170.629 250.061L166.597 253.017C166.629 253.062 166.663 253.106 166.697 253.15L170.629 250.061ZM167.789 250.301L163.447 247.82C163.417 247.873 163.388 247.926 163.36 247.981L167.789 250.301ZM168.189 254.941L164.139 257.873C164.177 257.926 164.217 257.978 164.257 258.03L168.189 254.941ZM170.469 257.301L167.154 261.043C167.157 261.047 167.161 261.05 167.164 261.053L170.469 257.301ZM173.149 259.661L169.844 263.413C169.867 263.433 169.89 263.453 169.913 263.472L173.149 259.661ZM176.709 263.741L172.481 266.411C172.492 266.428 172.503 266.446 172.515 266.463L176.709 263.741ZM177.149 273.541L181.501 276.001C181.509 275.988 181.516 275.974 181.524 275.961L177.149 273.541ZM174.189 276.461L171.737 272.103C171.724 272.11 171.711 272.118 171.698 272.125L174.189 276.461ZM169.709 272.541C168.248 272.541 167.415 272.278 166.968 272.042L162.289 280.879C164.562 282.083 167.116 282.541 169.709 282.541V272.541ZM166.968 272.042C166.642 271.869 166.352 271.612 166.084 271.035L157.014 275.246C158.132 277.656 159.895 279.612 162.289 280.879L166.968 272.042ZM166.098 271.066C165.77 270.348 165.453 269.1 165.386 267.094L155.391 267.427C155.485 270.221 155.94 272.893 157 275.216L166.098 271.066ZM161.132 272.205L167.252 271.285L165.765 261.396L159.645 262.316L161.132 272.205ZM161.51 266.437C161.54 268.011 161.677 269.548 162.018 270.913L171.719 268.488C171.634 268.147 171.531 267.444 171.508 266.244L161.51 266.437ZM162.055 271.054C162.405 272.296 163.053 273.923 164.417 275.196L171.24 267.885C171.547 268.172 171.686 268.419 171.722 268.488C171.758 268.558 171.733 268.529 171.682 268.347L162.055 271.054ZM164.536 275.303C165.908 276.504 167.597 277.101 169.349 277.101V267.101C169.594 267.101 169.911 267.141 170.257 267.269C170.606 267.397 170.898 267.582 171.121 267.778L164.536 275.303ZM169.349 277.101C170.245 277.101 171.424 276.954 172.602 276.332C173.879 275.659 174.848 274.584 175.397 273.281L166.181 269.4C166.516 268.603 167.138 267.909 167.935 267.489C168.633 267.12 169.199 267.101 169.349 267.101V277.101ZM175.307 273.481C175.864 272.306 176.149 271.042 176.149 269.741H166.149C166.149 269.66 166.158 269.565 166.181 269.463C166.204 269.361 166.236 269.272 166.27 269.2L175.307 273.481ZM176.149 269.741C176.149 267.587 175.621 265.406 174.274 263.497L166.104 269.264C166.084 269.236 166.088 269.227 166.101 269.274C166.117 269.328 166.149 269.473 166.149 269.741H176.149ZM174.312 263.553C173.368 262.175 172.177 260.923 170.835 259.778L164.342 267.383C165.187 268.104 165.73 268.719 166.065 269.208L174.312 263.553ZM170.874 259.811L168.074 257.371L161.504 264.91L164.304 267.35L170.874 259.811ZM168.022 257.327C167.152 256.589 166.437 255.777 165.855 254.887L157.482 260.354C158.608 262.077 159.972 263.612 161.555 264.954L168.022 257.327ZM165.918 254.986C165.688 254.614 165.429 253.94 165.429 252.701H155.429C155.429 255.355 155.996 257.96 157.419 260.255L165.918 254.986ZM165.429 252.701C165.429 250.979 165.899 250.416 166.183 250.164L159.554 242.677C156.585 245.305 155.429 248.928 155.429 252.701H165.429ZM166.217 250.134C166.691 249.706 167.59 249.221 169.509 249.221V239.221C165.827 239.221 162.299 240.202 159.52 242.707L166.217 250.134ZM169.509 249.221C170.745 249.221 171.185 249.44 171.212 249.455L176.125 240.746C174.072 239.588 171.739 239.221 169.509 239.221V249.221ZM171.259 249.482C171.594 249.666 171.67 249.799 171.698 249.849L180.439 244.992C179.401 243.122 177.877 241.709 176.078 240.719L171.259 249.482ZM171.781 249.993C172.027 250.403 172.183 250.823 172.264 251.282L182.114 249.559C181.821 247.884 181.23 246.305 180.356 244.848L171.781 249.993ZM172.291 251.425C172.452 252.21 172.533 252.919 172.551 253.559L182.547 253.282C182.511 252.002 182.352 250.712 182.087 249.416L172.291 251.425ZM176.936 248.458L170.776 249.218L172.001 259.143L178.161 258.383L176.936 248.458ZM176.387 254.042C176.356 252.944 176.278 251.899 176.131 250.94L166.247 252.461C166.313 252.889 166.368 253.497 166.391 254.319L176.387 254.042ZM176.158 251.148C176.025 249.953 175.656 248.367 174.56 246.971L166.697 253.15C166.43 252.81 166.307 252.514 166.257 252.366C166.207 252.221 166.21 252.168 166.219 252.253L176.158 251.148ZM174.661 247.104C173.202 245.114 171.054 244.461 169.269 244.461V254.461C169.041 254.461 168.592 254.424 168.05 254.185C167.475 253.931 166.967 253.523 166.597 253.017L174.661 247.104ZM169.269 244.461C166.882 244.461 164.694 245.638 163.447 247.82L172.13 252.781C171.907 253.172 171.503 253.658 170.867 254.019C170.239 254.375 169.648 254.461 169.269 254.461V244.461ZM163.36 247.981C162.74 249.163 162.349 250.513 162.349 251.981H172.349C172.349 252.142 172.327 252.288 172.296 252.407C172.265 252.524 172.231 252.596 172.218 252.621L163.36 247.981ZM162.349 251.981C162.349 253.961 162.818 256.049 164.139 257.873L172.238 252.008C172.28 252.065 172.311 252.12 172.334 252.167C172.356 252.214 172.366 252.245 172.369 252.256C172.374 252.274 172.349 252.195 172.349 251.981H162.349ZM164.257 258.03C165.076 259.072 166.061 260.076 167.154 261.043L173.784 253.558C173.01 252.872 172.474 252.302 172.12 251.851L164.257 258.03ZM167.164 261.053L169.844 263.413L176.453 255.908L173.773 253.548L167.164 261.053ZM169.913 263.472C170.952 264.354 171.8 265.332 172.481 266.411L180.936 261.071C179.697 259.109 178.172 257.367 176.385 255.849L169.913 263.472ZM172.515 266.463C172.863 267 173.189 267.878 173.189 269.381H183.189C183.189 266.403 182.527 263.521 180.903 261.018L172.515 266.463ZM173.189 269.381C173.189 270.107 173.032 270.653 172.774 271.12L181.524 275.961C182.652 273.921 183.189 271.694 183.189 269.381H173.189ZM172.796 271.08C172.571 271.478 172.257 271.81 171.737 272.103L176.64 280.818C178.68 279.671 180.34 278.056 181.501 276.001L172.796 271.08ZM171.698 272.125C171.341 272.33 170.742 272.541 169.709 272.541V282.541C172.142 282.541 174.53 282.031 176.679 280.796L171.698 272.125ZM181.471 273.141L176.921 275.216C176.926 275.226 176.931 275.236 176.936 275.246L181.471 273.141ZM180.311 267.261L179.567 262.316C177.058 262.693 175.229 264.891 175.313 267.427L180.311 267.261ZM186.431 266.341L191.43 266.244C191.402 264.806 190.756 263.449 189.656 262.52C188.557 261.592 187.11 261.182 185.687 261.396L186.431 266.341ZM186.791 269.701L181.94 270.913C181.952 270.96 181.964 271.007 181.977 271.054L186.791 269.701ZM187.751 271.541L184.339 275.196C184.378 275.232 184.418 275.268 184.458 275.303L187.751 271.541ZM190.711 271.341L186.192 269.2C186.161 269.266 186.131 269.333 186.102 269.4L190.711 271.341ZM190.111 266.381L185.987 269.208C186 269.227 186.013 269.245 186.026 269.264L190.111 266.381ZM187.511 263.581L184.226 267.35C184.238 267.361 184.251 267.372 184.264 267.383L187.511 263.581ZM184.711 261.141L187.995 257.371C187.978 257.356 187.961 257.341 187.944 257.327L184.711 261.141ZM181.591 257.621L177.341 260.255C177.362 260.289 177.383 260.322 177.404 260.354L181.591 257.621ZM182.791 246.421L186.105 250.164C186.116 250.154 186.127 250.144 186.139 250.134L182.791 246.421ZM193.591 245.101L191.134 249.455C191.15 249.464 191.165 249.473 191.181 249.482L193.591 245.101ZM195.991 247.421L191.62 249.849C191.647 249.897 191.675 249.945 191.703 249.993L195.991 247.421ZM197.111 250.421L192.185 251.282C192.194 251.33 192.203 251.378 192.213 251.425L197.111 250.421ZM197.471 253.421L198.083 258.383C200.641 258.067 202.54 255.858 202.469 253.282L197.471 253.421ZM191.311 254.181L186.312 254.319C186.352 255.727 186.983 257.054 188.051 257.972C189.119 258.89 190.525 259.315 191.923 259.143L191.311 254.181ZM191.111 251.701L186.141 252.253C186.149 252.322 186.158 252.392 186.169 252.461L191.111 251.701ZM190.551 250.061L186.519 253.017C186.551 253.062 186.585 253.106 186.619 253.15L190.551 250.061ZM187.711 250.301L183.369 247.82C183.339 247.873 183.31 247.926 183.281 247.981L187.711 250.301ZM188.111 254.941L184.061 257.873C184.099 257.926 184.139 257.978 184.179 258.03L188.111 254.941ZM190.391 257.301L187.075 261.043C187.079 261.047 187.083 261.05 187.086 261.053L190.391 257.301ZM193.071 259.661L189.766 263.413C189.789 263.433 189.811 263.453 189.834 263.472L193.071 259.661ZM196.631 263.741L192.403 266.411C192.414 266.428 192.425 266.446 192.437 266.463L196.631 263.741ZM197.071 273.541L201.423 276.001C201.431 275.988 201.438 275.974 201.446 275.961L197.071 273.541ZM194.111 276.461L191.659 272.103C191.646 272.11 191.633 272.118 191.62 272.125L194.111 276.461ZM189.631 272.541C188.17 272.541 187.337 272.278 186.89 272.042L182.211 280.879C184.484 282.083 187.038 282.541 189.631 282.541V272.541ZM186.89 272.042C186.564 271.869 186.273 271.612 186.006 271.035L176.936 275.246C178.054 277.656 179.817 279.612 182.211 280.879L186.89 272.042ZM186.02 271.066C185.692 270.348 185.375 269.1 185.308 267.094L175.313 267.427C175.406 270.221 175.862 272.893 176.921 275.216L186.02 271.066ZM181.054 272.205L187.174 271.285L185.687 261.396L179.567 262.316L181.054 272.205ZM181.431 266.437C181.462 268.011 181.599 269.548 181.94 270.913L191.641 268.488C191.556 268.147 191.453 267.444 191.43 266.244L181.431 266.437ZM181.977 271.054C182.327 272.296 182.975 273.923 184.339 275.196L191.162 267.885C191.469 268.172 191.608 268.419 191.643 268.488C191.68 268.558 191.655 268.529 191.604 268.347L181.977 271.054ZM184.458 275.303C185.83 276.504 187.519 277.101 189.271 277.101V267.101C189.516 267.101 189.833 267.141 190.179 267.269C190.528 267.397 190.82 267.582 191.043 267.778L184.458 275.303ZM189.271 277.101C190.167 277.101 191.346 276.954 192.524 276.332C193.801 275.659 194.77 274.584 195.319 273.281L186.102 269.4C186.438 268.603 187.06 267.909 187.857 267.489C188.555 267.12 189.121 267.101 189.271 267.101V277.101ZM195.229 273.481C195.786 272.306 196.071 271.042 196.071 269.741H186.071C186.071 269.66 186.079 269.565 186.103 269.463C186.126 269.361 186.158 269.272 186.192 269.2L195.229 273.481ZM196.071 269.741C196.071 267.587 195.543 265.406 194.195 263.497L186.026 269.264C186.006 269.236 186.01 269.227 186.023 269.274C186.038 269.328 186.071 269.473 186.071 269.741H196.071ZM194.234 263.553C193.29 262.175 192.099 260.923 190.757 259.778L184.264 267.383C185.109 268.104 185.652 268.719 185.987 269.208L194.234 263.553ZM190.795 259.811L187.995 257.371L181.426 264.91L184.226 267.35L190.795 259.811ZM187.944 257.327C187.074 256.589 186.358 255.777 185.777 254.887L177.404 260.354C178.529 262.077 179.894 263.612 181.477 264.954L187.944 257.327ZM185.84 254.986C185.61 254.614 185.351 253.94 185.351 252.701H175.351C175.351 255.355 175.918 257.96 177.341 260.255L185.84 254.986ZM185.351 252.701C185.351 250.979 185.821 250.416 186.105 250.164L179.476 242.677C176.507 245.305 175.351 248.928 175.351 252.701H185.351ZM186.139 250.134C186.613 249.706 187.512 249.221 189.431 249.221V239.221C185.749 239.221 182.221 240.202 179.442 242.707L186.139 250.134ZM189.431 249.221C190.667 249.221 191.107 249.44 191.134 249.455L196.047 240.746C193.994 239.588 191.661 239.221 189.431 239.221V249.221ZM191.181 249.482C191.516 249.666 191.592 249.799 191.62 249.849L200.361 244.992C199.322 243.122 197.799 241.709 196 240.719L191.181 249.482ZM191.703 249.993C191.949 250.403 192.105 250.823 192.185 251.282L202.036 249.559C201.743 247.884 201.152 246.305 200.278 244.848L191.703 249.993ZM192.213 251.425C192.373 252.21 192.455 252.919 192.472 253.559L202.469 253.282C202.433 252.002 202.274 250.712 202.009 249.416L192.213 251.425ZM196.858 248.458L190.698 249.218L191.923 259.143L198.083 258.383L196.858 248.458ZM196.309 254.042C196.278 252.944 196.2 251.899 196.052 250.94L186.169 252.461C186.235 252.889 186.29 253.497 186.312 254.319L196.309 254.042ZM196.08 251.148C195.947 249.953 195.578 248.367 194.482 246.971L186.619 253.15C186.352 252.81 186.229 252.514 186.179 252.366C186.129 252.221 186.132 252.168 186.141 252.253L196.08 251.148ZM194.583 247.104C193.123 245.114 190.976 244.461 189.191 244.461V254.461C188.963 254.461 188.514 254.424 187.972 254.185C187.397 253.931 186.889 253.523 186.519 253.017L194.583 247.104ZM189.191 244.461C186.804 244.461 184.616 245.638 183.369 247.82L192.052 252.781C191.829 253.172 191.425 253.658 190.789 254.019C190.16 254.375 189.57 254.461 189.191 254.461V244.461ZM183.281 247.981C182.662 249.163 182.271 250.513 182.271 251.981H192.271C192.271 252.142 192.249 252.288 192.217 252.407C192.187 252.524 192.152 252.596 192.14 252.621L183.281 247.981ZM182.271 251.981C182.271 253.961 182.74 256.049 184.061 257.873L192.16 252.008C192.201 252.065 192.233 252.12 192.255 252.167C192.278 252.214 192.288 252.245 192.291 252.256C192.296 252.274 192.271 252.195 192.271 251.981H182.271ZM184.179 258.03C184.998 259.072 185.983 260.076 187.075 261.043L193.706 253.558C192.932 252.872 192.396 252.302 192.042 251.851L184.179 258.03ZM187.086 261.053L189.766 263.413L196.375 255.908L193.695 253.548L187.086 261.053ZM189.834 263.472C190.874 264.354 191.722 265.332 192.403 266.411L200.858 261.071C199.619 259.109 198.094 257.367 196.307 255.849L189.834 263.472ZM192.437 266.463C192.785 267 193.111 267.878 193.111 269.381H203.111C203.111 266.403 202.449 263.521 200.824 261.018L192.437 266.463ZM193.111 269.381C193.111 270.107 192.954 270.653 192.695 271.12L201.446 275.961C202.574 273.921 203.111 271.694 203.111 269.381H193.111ZM192.718 271.08C192.493 271.478 192.179 271.81 191.659 272.103L196.562 280.818C198.602 279.671 200.262 278.056 201.423 276.001L192.718 271.08ZM191.62 272.125C191.262 272.33 190.664 272.541 189.631 272.541V282.541C192.064 282.541 194.452 282.031 196.601 280.796L191.62 272.125ZM201.577 277.061H196.577C196.577 279.822 198.816 282.061 201.577 282.061V277.061ZM201.577 244.661V239.661C198.816 239.661 196.577 241.899 196.577 244.661H201.577ZM208.737 244.661H213.737C213.737 241.899 211.499 239.661 208.737 239.661V244.661ZM208.737 272.221H203.737C203.737 274.982 205.976 277.221 208.737 277.221V272.221ZM216.177 272.221H221.177C221.177 269.459 218.939 267.221 216.177 267.221V272.221ZM216.177 277.061V282.061C218.939 282.061 221.177 279.822 221.177 277.061H216.177ZM206.577 277.061V244.661H196.577V277.061H206.577ZM201.577 249.661H208.737V239.661H201.577V249.661ZM203.737 244.661V272.221H213.737V244.661H203.737ZM208.737 277.221H216.177V267.221H208.737V277.221ZM211.177 272.221V277.061H221.177V272.221H211.177ZM216.177 272.061H201.577V282.061H216.177V272.061ZM217.752 277.061L212.839 276.133C212.562 277.595 212.952 279.105 213.902 280.251C214.852 281.397 216.263 282.061 217.752 282.061V277.061ZM223.872 244.661V239.661C221.468 239.661 219.405 241.371 218.959 243.733L223.872 244.661ZM232.032 244.661L236.947 243.744C236.506 241.377 234.44 239.661 232.032 239.661V244.661ZM238.072 277.061V282.061C239.558 282.061 240.968 281.399 241.918 280.256C242.868 279.112 243.26 277.606 242.987 276.144L238.072 277.061ZM231.472 277.061L226.533 277.84C226.917 280.271 229.011 282.061 231.472 282.061V277.061ZM230.392 270.221L235.331 269.441C234.947 267.01 232.852 265.221 230.392 265.221V270.221ZM225.632 270.221V265.221C223.182 265.221 221.093 266.995 220.698 269.413L225.632 270.221ZM224.512 277.061V282.061C226.961 282.061 229.05 280.286 229.446 277.869L224.512 277.061ZM226.272 265.941L221.317 265.266C221.123 266.697 221.556 268.142 222.505 269.229C223.455 270.317 224.828 270.941 226.272 270.941V265.941ZM229.712 265.941V270.941C231.155 270.941 232.529 270.317 233.478 269.229C234.428 268.142 234.861 266.697 234.666 265.266L229.712 265.941ZM227.992 253.301L232.946 252.626C232.609 250.148 230.493 248.301 227.992 248.301C225.491 248.301 223.375 250.148 223.037 252.626L227.992 253.301ZM222.665 277.989L228.785 245.589L218.959 243.733L212.839 276.133L222.665 277.989ZM223.872 249.661H232.032V239.661H223.872V249.661ZM227.116 245.577L233.156 277.977L242.987 276.144L236.947 243.744L227.116 245.577ZM238.072 272.061H231.472V282.061H238.072V272.061ZM236.411 276.281L235.331 269.441L225.453 271L226.533 277.84L236.411 276.281ZM230.392 265.221H225.632V275.221H230.392V265.221ZM220.698 269.413L219.578 276.253L229.446 277.869L230.566 271.029L220.698 269.413ZM224.512 272.061H217.752V282.061H224.512V272.061ZM226.272 270.941H229.712V260.941H226.272V270.941ZM234.666 265.266L232.946 252.626L223.037 253.975L224.757 266.615L234.666 265.266ZM223.037 252.626L221.317 265.266L231.226 266.615L232.946 253.975L223.037 252.626ZM241.343 277.061H236.343C236.343 279.822 238.582 282.061 241.343 282.061V277.061ZM241.343 244.661V239.661C238.582 239.661 236.343 241.899 236.343 244.661H241.343ZM253.703 244.981L252.846 249.907C252.852 249.908 252.858 249.909 252.864 249.91L253.703 244.981ZM257.023 246.221L254.331 250.434C254.359 250.452 254.387 250.47 254.416 250.487L257.023 246.221ZM259.263 248.781L254.749 250.93C254.769 250.974 254.791 251.017 254.813 251.06L259.263 248.781ZM259.503 256.461L254.928 254.442C254.919 254.464 254.909 254.486 254.9 254.508L259.503 256.461ZM257.863 258.581L254.887 254.563C254.863 254.581 254.838 254.599 254.815 254.617L257.863 258.581ZM255.343 259.661L254.414 254.748C251.997 255.205 250.272 257.352 250.345 259.811C250.419 262.269 252.27 264.309 254.71 264.62L255.343 259.661ZM258.503 260.901L255.425 264.841C255.451 264.861 255.477 264.881 255.503 264.901L258.503 260.901ZM260.423 263.501L255.765 265.318C255.778 265.351 255.791 265.383 255.804 265.416L260.423 263.501ZM260.423 271.821L255.733 270.087C255.726 270.107 255.719 270.126 255.712 270.146L260.423 271.821ZM255.463 276.501L254.007 271.717C253.997 271.72 253.988 271.723 253.978 271.726L255.463 276.501ZM248.503 272.061H243.503C243.503 274.822 245.742 277.061 248.503 277.061V272.061ZM253.263 270.861L249.295 267.818C249.273 267.847 249.252 267.875 249.231 267.904L253.263 270.861ZM252.463 262.861L250.003 267.213C250.051 267.241 250.101 267.268 250.15 267.293L252.463 262.861ZM248.503 262.341V257.341C245.742 257.341 243.503 259.579 243.503 262.341H248.503ZM248.503 257.621H243.503C243.503 260.382 245.742 262.621 248.503 262.621V257.621ZM252.383 257.141L254.864 261.482C254.915 261.453 254.965 261.423 255.015 261.392L252.383 257.141ZM253.503 255.661L248.76 254.079C248.74 254.139 248.721 254.2 248.703 254.261L253.503 255.661ZM253.343 251.221L248.871 253.457C248.912 253.539 248.956 253.621 249.002 253.701L253.343 251.221ZM251.983 249.901L249.747 254.373C249.773 254.386 249.799 254.399 249.826 254.411L251.983 249.901ZM248.503 249.461V244.461C245.742 244.461 243.503 246.699 243.503 249.461H248.503ZM246.343 277.061V244.661H236.343V277.061H246.343ZM241.343 249.661H249.783V239.661H241.343V249.661ZM249.783 249.661C250.914 249.661 251.932 249.748 252.846 249.907L254.56 240.054C253.02 239.787 251.425 239.661 249.783 239.661V249.661ZM252.864 249.91C253.535 250.024 253.997 250.22 254.331 250.434L259.715 242.007C258.129 240.994 256.378 240.364 254.542 240.051L252.864 249.91ZM254.416 250.487C254.464 250.517 254.588 250.593 254.749 250.93L263.777 246.631C262.871 244.729 261.502 243.098 259.63 241.954L254.416 250.487ZM254.813 251.06C254.881 251.192 255.103 251.772 255.103 253.141H265.103C265.103 250.883 264.766 248.556 263.713 246.501L254.813 251.06ZM255.103 253.141C255.103 253.963 254.974 254.34 254.928 254.442L264.078 258.479C264.832 256.768 265.103 254.931 265.103 253.141H255.103ZM254.9 254.508C254.884 254.545 254.872 254.568 254.865 254.58C254.858 254.592 254.856 254.594 254.858 254.591C254.861 254.588 254.866 254.582 254.873 254.575C254.88 254.568 254.885 254.564 254.887 254.563L260.839 262.598C262.324 261.498 263.408 260.057 264.106 258.413L254.9 254.508ZM254.815 254.617C254.814 254.618 254.796 254.632 254.743 254.655C254.689 254.678 254.584 254.715 254.414 254.748L256.273 264.573C257.916 264.263 259.51 263.622 260.912 262.544L254.815 254.617ZM254.71 264.62C255.222 264.686 255.391 264.814 255.425 264.841L261.581 256.96C259.909 255.654 257.971 254.955 255.976 254.701L254.71 264.62ZM255.503 264.901C255.538 264.926 255.642 265.003 255.765 265.318L265.081 261.683C264.351 259.812 263.175 258.155 261.503 256.901L255.503 264.901ZM255.804 265.416C255.942 265.747 256.103 266.379 256.103 267.461H266.103C266.103 265.449 265.811 263.441 265.042 261.585L255.804 265.416ZM256.103 267.461C256.103 268.709 255.932 269.548 255.733 270.087L265.113 273.554C265.82 271.64 266.103 269.572 266.103 267.461H256.103ZM255.712 270.146C255.519 270.688 255.301 270.967 255.127 271.129L261.959 278.432C263.439 277.048 264.474 275.353 265.134 273.496L255.712 270.146ZM255.127 271.129C254.929 271.315 254.6 271.537 254.007 271.717L256.919 281.284C258.779 280.718 260.504 279.793 261.959 278.432L255.127 271.129ZM253.978 271.726C253.362 271.918 252.494 272.061 251.303 272.061V282.061C253.259 282.061 255.164 281.83 256.948 281.275L253.978 271.726ZM251.303 272.061H241.343V282.061H251.303V272.061ZM248.503 277.061H250.023V267.061H248.503V277.061ZM250.023 277.061C252.24 277.061 255.319 276.512 257.295 273.817L249.231 267.904C249.405 267.666 249.607 267.473 249.809 267.328C250.007 267.186 250.175 267.109 250.276 267.072C250.455 267.006 250.419 267.061 250.023 267.061V277.061ZM257.231 273.903C258.787 271.873 259.183 269.432 259.183 267.341H249.183C249.183 267.798 249.136 268.037 249.116 268.116C249.097 268.186 249.123 268.043 249.295 267.818L257.231 273.903ZM259.183 267.341C259.183 265.832 259.03 264.191 258.472 262.684L249.094 266.157C249.072 266.096 249.099 266.149 249.129 266.369C249.159 266.584 249.183 266.901 249.183 267.341H259.183ZM258.472 262.684C257.826 260.94 256.612 259.385 254.776 258.428L250.15 267.293C249.891 267.158 249.641 266.963 249.436 266.72C249.237 266.484 249.137 266.273 249.094 266.157L258.472 262.684ZM254.923 258.508C253.285 257.582 251.504 257.341 249.983 257.341V267.341C250.105 267.341 250.197 267.346 250.261 267.352C250.325 267.358 250.355 267.364 250.357 267.364C250.364 267.366 250.222 267.337 250.003 267.213L254.923 258.508ZM249.983 257.341H248.503V267.341H249.983V257.341ZM243.503 262.341V272.061H253.503V262.341H243.503ZM248.503 262.621H249.903V252.621H248.503V262.621ZM249.903 262.621C251.334 262.621 253.192 262.437 254.864 261.482L249.902 252.799C250.065 252.706 250.197 252.653 250.278 252.626C250.358 252.598 250.4 252.59 250.393 252.592C250.386 252.593 250.343 252.601 250.258 252.608C250.173 252.615 250.056 252.621 249.903 252.621V262.621ZM255.015 261.392C256.639 260.386 257.775 258.87 258.303 257.061L248.703 254.261C248.767 254.042 248.888 253.768 249.096 253.493C249.305 253.218 249.541 253.019 249.751 252.889L255.015 261.392ZM258.246 257.242C258.677 255.951 258.823 254.612 258.823 253.341H248.823C248.823 253.882 248.756 254.091 248.76 254.079L258.246 257.242ZM258.823 253.341C258.823 251.889 258.553 250.261 257.684 248.74L249.002 253.701C248.773 253.3 248.823 253.085 248.823 253.341H258.823ZM257.815 248.984C257.005 247.365 255.717 246.144 254.14 245.39L249.826 254.411C249.681 254.342 249.491 254.224 249.301 254.038C249.108 253.852 248.966 253.647 248.871 253.457L257.815 248.984ZM254.219 245.428C252.725 244.681 251.146 244.461 249.743 244.461V254.461C249.836 254.461 249.904 254.464 249.951 254.468C249.998 254.473 250.02 254.477 250.019 254.477C250.019 254.477 249.993 254.472 249.946 254.456C249.899 254.441 249.831 254.415 249.747 254.373L254.219 245.428ZM249.743 244.461H248.503V254.461H249.743V244.461ZM243.503 249.461V257.621H253.503V249.461H243.503Z" fill="#242040"/>
</g>
</svg>
